<svg width="37" height="37" viewBox="0 0 37 37" fill="none" xmlns="http://www.w3.org/2000/svg">
<mask id="path-1-outside-1_1_2468" maskUnits="userSpaceOnUse" x="0" y="0" width="37" height="37" fill="black">
<rect fill="white" width="37" height="37"/>
<path d="M35.4531 18.875C35.4531 27.3516 29.2324 34.3926 21.0977 35.623V23.7969H25.0625L25.8145 18.875H21.0977V15.7305C21.0977 14.3633 21.7812 13.0645 23.9004 13.0645H26.0195V8.89453C26.0195 8.89453 24.1055 8.55273 22.1914 8.55273C18.3633 8.55273 15.834 10.9453 15.834 15.1836V18.875H11.5273V23.7969H15.834V35.623C7.69922 34.3926 1.54688 27.3516 1.54688 18.875C1.54688 9.50977 9.13477 1.92188 18.5 1.92188C27.8652 1.92188 35.4531 9.50977 35.4531 18.875Z"/>
</mask>
<path d="M21.0977 35.623H20.0977V36.7857L21.2472 36.6118L21.0977 35.623ZM21.0977 23.7969V22.7969H20.0977V23.7969H21.0977ZM25.0625 23.7969V24.7969H25.9213L26.051 23.9479L25.0625 23.7969ZM25.8145 18.875L26.803 19.026L26.9788 17.875H25.8145V18.875ZM21.0977 18.875H20.0977V19.875H21.0977V18.875ZM26.0195 13.0645V14.0645H27.0195V13.0645H26.0195ZM26.0195 8.89453H27.0195V8.05728L26.1953 7.9101L26.0195 8.89453ZM15.834 18.875V19.875H16.834V18.875H15.834ZM11.5273 18.875V17.875H10.5273V18.875H11.5273ZM11.5273 23.7969H10.5273V24.7969H11.5273V23.7969ZM15.834 23.7969H16.834V22.7969H15.834V23.7969ZM15.834 35.623L15.6844 36.6118L16.834 36.7857V35.623H15.834ZM35.4531 18.875H34.4531C34.4531 26.8522 28.5987 33.4771 20.9481 34.6343L21.0977 35.623L21.2472 36.6118C29.8661 35.3081 36.4531 27.851 36.4531 18.875H35.4531ZM21.0977 35.623H22.0977V23.7969H21.0977H20.0977V35.623H21.0977ZM21.0977 23.7969V24.7969H25.0625V23.7969V22.7969H21.0977V23.7969ZM25.0625 23.7969L26.051 23.9479L26.803 19.026L25.8145 18.875L24.8259 18.724L24.074 23.6458L25.0625 23.7969ZM25.8145 18.875V17.875H21.0977V18.875V19.875H25.8145V18.875ZM21.0977 18.875H22.0977V15.7305H21.0977H20.0977V18.875H21.0977ZM21.0977 15.7305H22.0977C22.0977 15.1969 22.2323 14.7987 22.4553 14.5451C22.6571 14.3157 23.0539 14.0645 23.9004 14.0645V13.0645V12.0645C22.6278 12.0645 21.6232 12.4627 20.9534 13.2244C20.3048 13.962 20.0977 14.8968 20.0977 15.7305H21.0977ZM23.9004 13.0645V14.0645H26.0195V13.0645V12.0645H23.9004V13.0645ZM26.0195 13.0645H27.0195V8.89453H26.0195H25.0195V13.0645H26.0195ZM26.0195 8.89453C26.1953 7.9101 26.1952 7.91009 26.1951 7.91007C26.1951 7.91006 26.195 7.91004 26.1949 7.91003C26.1947 7.91 26.1945 7.90996 26.1943 7.90992C26.1938 7.90984 26.1933 7.90974 26.1926 7.90962C26.1912 7.90937 26.1894 7.90905 26.1871 7.90864C26.1825 7.90784 26.176 7.90671 26.1679 7.9053C26.1515 7.90247 26.128 7.89846 26.0979 7.89345C26.0378 7.88343 25.9512 7.86937 25.8419 7.85264C25.6233 7.81919 25.3131 7.77489 24.9415 7.73064C24.2021 7.64262 23.2024 7.55273 22.1914 7.55273V8.55273V9.55273C23.0945 9.55273 24.0089 9.63374 24.705 9.71662C25.0512 9.75783 25.3391 9.79898 25.5393 9.82961C25.6393 9.84492 25.7171 9.85757 25.7691 9.86624C25.7952 9.87057 25.8147 9.87391 25.8273 9.87609C25.8336 9.87717 25.8381 9.87797 25.8409 9.87846C25.8423 9.8787 25.8432 9.87887 25.8437 9.87895C25.8439 9.87899 25.844 9.87901 25.8441 9.87902C25.8441 9.87902 25.844 9.87901 25.844 9.879C25.844 9.879 25.8439 9.87899 25.8439 9.87898C25.8438 9.87897 25.8437 9.87896 26.0195 8.89453ZM22.1914 8.55273V7.55273C20.067 7.55273 18.2003 8.22095 16.8647 9.57712C15.5297 10.9326 14.834 12.8648 14.834 15.1836H15.834H16.834C16.834 13.2641 17.4029 11.8808 18.2896 10.9805C19.1757 10.0808 20.4877 9.55273 22.1914 9.55273V8.55273ZM15.834 15.1836H14.834V18.875H15.834H16.834V15.1836H15.834ZM15.834 18.875V17.875H11.5273V18.875V19.875H15.834V18.875ZM11.5273 18.875H10.5273V23.7969H11.5273H12.5273V18.875H11.5273ZM11.5273 23.7969V24.7969H15.834V23.7969V22.7969H11.5273V23.7969ZM15.834 23.7969H14.834V35.623H15.834H16.834V23.7969H15.834ZM15.834 35.623L15.9835 34.6343C8.33866 33.4779 2.54688 26.858 2.54688 18.875H1.54688H0.546875C0.546875 27.8452 7.05977 35.3072 15.6844 36.6118L15.834 35.623ZM1.54688 18.875H2.54688C2.54688 10.0621 9.68705 2.92188 18.5 2.92188V1.92188V0.921875C8.58248 0.921875 0.546875 8.95748 0.546875 18.875H1.54688ZM18.5 1.92188V2.92188C27.313 2.92188 34.4531 10.0621 34.4531 18.875H35.4531H36.4531C36.4531 8.95748 28.4175 0.921875 18.5 0.921875V1.92188Z" fill="black" mask="url(#path-1-outside-1_1_2468)"/>
</svg>
