<svg width="54" height="54" viewBox="0 0 54 54" fill="none" xmlns="http://www.w3.org/2000/svg">
<g clip-path="url(#clip0_2051_3243)">
<path d="M27.438 1.1568L31.8182 5.53698C31.9952 5.71392 32.0486 5.98027 31.9527 6.21198C31.8568 6.44368 31.6308 6.59439 31.3802 6.59434L27.6194 6.59439L27.6194 24.1152L30.0662 26.562C30.3079 26.8038 30.3084 27.1958 30.0662 27.438L27.6194 29.8848L27.6194 47.4056L31.3803 47.4056C31.6317 47.4056 31.8581 47.5559 31.9528 47.788C32.0487 48.0189 31.9952 48.286 31.8183 48.463L27.4381 52.8432C27.1958 53.0854 26.8038 53.085 26.562 52.8432L22.1819 48.463C22.0049 48.2861 21.9515 48.0197 22.0474 47.788C22.1433 47.5563 22.3693 47.4056 22.6199 47.4057L26.3807 47.4056L26.3807 29.8848L23.9339 27.438C23.6922 27.1962 23.6917 26.8042 23.9339 26.562L26.3807 24.1152L26.3807 6.59439L22.6198 6.59439C22.4525 6.59439 22.2957 6.52694 22.1818 6.41304C22.1253 6.35652 22.0789 6.28908 22.0474 6.21198C21.9514 5.98114 22.0049 5.71397 22.1819 5.53698L26.562 1.1568C26.8043 0.914567 27.1963 0.915029 27.438 1.1568ZM24.1153 48.6443L27 51.5291L29.8849 48.6443L24.1153 48.6443ZM25.2479 27L27 28.7521L28.7521 27L27 25.2479L25.2479 27ZM24.1153 5.35568L29.8849 5.35568L27.0001 2.47085L24.1153 5.35568Z" fill="#C9C9C9"/>
</g>
<defs>
<clipPath id="clip0_2051_3243">
<rect width="37.1672" height="37.1672" fill="white" transform="matrix(-0.707107 -0.707107 -0.707107 0.707107 53.2812 27)"/>
</clipPath>
</defs>
</svg>
