<svg width="39" height="33" viewBox="0 0 39 33" fill="none" xmlns="http://www.w3.org/2000/svg">
<mask id="path-1-outside-1_1_2469" maskUnits="userSpaceOnUse" x="0" y="0" width="39" height="33" fill="black">
<rect fill="white" width="39" height="33"/>
<path d="M32.377 9.76562C32.377 10.1074 32.377 10.3809 32.377 10.7227C32.377 20.2246 25.1992 31.0938 12.0059 31.0938C7.9043 31.0938 4.14453 29.9316 1 27.8809C1.54688 27.9492 2.09375 28.0176 2.70898 28.0176C6.05859 28.0176 9.13477 26.8555 11.5957 24.9414C8.45117 24.873 5.78516 22.8223 4.89648 19.9512C5.375 20.0195 5.78516 20.0879 6.26367 20.0879C6.87891 20.0879 7.5625 19.9512 8.10938 19.8145C4.82812 19.1309 2.36719 16.2598 2.36719 12.7734V12.7051C3.32422 13.252 4.48633 13.5254 5.64844 13.5938C3.66602 12.2949 2.43555 10.1074 2.43555 7.64648C2.43555 6.2793 2.77734 5.04883 3.39258 4.02344C6.94727 8.33008 12.2793 11.2012 18.2266 11.543C18.0898 10.9961 18.0215 10.4492 18.0215 9.90234C18.0215 5.9375 21.2344 2.72461 25.1992 2.72461C27.25 2.72461 29.0957 3.54492 30.4629 4.98047C32.0352 4.63867 33.6074 4.02344 34.9746 3.20312C34.4277 4.91211 33.334 6.2793 31.8301 7.16797C33.2656 7.03125 34.7012 6.62109 35.9316 6.07422C34.9746 7.50977 33.7441 8.74023 32.377 9.76562Z"/>
</mask>
<path d="M32.377 9.76562L31.777 8.96562L31.377 9.26562V9.76562H32.377ZM1 27.8809L1.12403 26.8886L0.453732 28.7185L1 27.8809ZM11.5957 24.9414L12.2096 25.7308L14.4313 24.0028L11.6174 23.9416L11.5957 24.9414ZM4.89648 19.9512L5.03791 18.9612L3.47412 18.7378L3.9412 20.2469L4.89648 19.9512ZM8.10938 19.8145L8.35191 20.7846L8.31333 18.8355L8.10938 19.8145ZM2.36719 12.7051L2.86333 11.8368L1.36719 10.9819V12.7051H2.36719ZM5.64844 13.5938L5.58972 14.592L9.33293 14.8122L6.19646 12.7573L5.64844 13.5938ZM3.39258 4.02344L4.1638 3.38687L3.26308 2.29562L2.53509 3.50894L3.39258 4.02344ZM18.2266 11.543L18.1692 12.5413L19.5264 12.6193L19.1967 11.3004L18.2266 11.543ZM30.4629 4.98047L29.7388 5.67012L30.1263 6.07701L30.6753 5.95765L30.4629 4.98047ZM34.9746 3.20312L35.927 3.5079L36.7359 0.980152L34.4601 2.34563L34.9746 3.20312ZM31.8301 7.16797L31.3213 6.30704L31.9249 8.16346L31.8301 7.16797ZM35.9316 6.07422L36.7637 6.62892L38.6763 3.76007L35.5255 5.16041L35.9316 6.07422ZM32.377 9.76562H31.377C31.377 9.76629 31.377 9.76696 31.377 9.76763C31.377 9.76829 31.377 9.76896 31.377 9.76963C31.377 9.77029 31.377 9.77096 31.377 9.77163C31.377 9.77229 31.377 9.77296 31.377 9.77362C31.377 9.77429 31.377 9.77495 31.377 9.77562C31.377 9.77628 31.377 9.77695 31.377 9.77761C31.377 9.77828 31.377 9.77894 31.377 9.77961C31.377 9.78027 31.377 9.78093 31.377 9.7816C31.377 9.78226 31.377 9.78292 31.377 9.78359C31.377 9.78425 31.377 9.78491 31.377 9.78557C31.377 9.78624 31.377 9.7869 31.377 9.78756C31.377 9.78822 31.377 9.78889 31.377 9.78955C31.377 9.79021 31.377 9.79087 31.377 9.79153C31.377 9.79219 31.377 9.79285 31.377 9.79351C31.377 9.79417 31.377 9.79483 31.377 9.79549C31.377 9.79615 31.377 9.79681 31.377 9.79747C31.377 9.79813 31.377 9.79879 31.377 9.79945C31.377 9.80011 31.377 9.80077 31.377 9.80143C31.377 9.80208 31.377 9.80274 31.377 9.8034C31.377 9.80406 31.377 9.80472 31.377 9.80537C31.377 9.80603 31.377 9.80669 31.377 9.80735C31.377 9.808 31.377 9.80866 31.377 9.80932C31.377 9.80997 31.377 9.81063 31.377 9.81129C31.377 9.81194 31.377 9.8126 31.377 9.81325C31.377 9.81391 31.377 9.81456 31.377 9.81522C31.377 9.81588 31.377 9.81653 31.377 9.81718C31.377 9.81784 31.377 9.81849 31.377 9.81915C31.377 9.8198 31.377 9.82046 31.377 9.82111C31.377 9.82176 31.377 9.82242 31.377 9.82307C31.377 9.82372 31.377 9.82438 31.377 9.82503C31.377 9.82568 31.377 9.82634 31.377 9.82699C31.377 9.82764 31.377 9.82829 31.377 9.82894C31.377 9.8296 31.377 9.83025 31.377 9.8309C31.377 9.83155 31.377 9.8322 31.377 9.83285C31.377 9.8335 31.377 9.83415 31.377 9.83481C31.377 9.83546 31.377 9.83611 31.377 9.83676C31.377 9.83741 31.377 9.83806 31.377 9.83871C31.377 9.83936 31.377 9.84001 31.377 9.84065C31.377 9.8413 31.377 9.84195 31.377 9.8426C31.377 9.84325 31.377 9.8439 31.377 9.84455C31.377 9.8452 31.377 9.84584 31.377 9.84649C31.377 9.84714 31.377 9.84779 31.377 9.84843C31.377 9.84908 31.377 9.84973 31.377 9.85038C31.377 9.85102 31.377 9.85167 31.377 9.85232C31.377 9.85296 31.377 9.85361 31.377 9.85426C31.377 9.8549 31.377 9.85555 31.377 9.85619C31.377 9.85684 31.377 9.85748 31.377 9.85813C31.377 9.85878 31.377 9.85942 31.377 9.86007C31.377 9.86071 31.377 9.86136 31.377 9.862C31.377 9.86264 31.377 9.86329 31.377 9.86393C31.377 9.86458 31.377 9.86522 31.377 9.86586C31.377 9.86651 31.377 9.86715 31.377 9.86779C31.377 9.86844 31.377 9.86908 31.377 9.86972C31.377 9.87037 31.377 9.87101 31.377 9.87165C31.377 9.87229 31.377 9.87294 31.377 9.87358C31.377 9.87422 31.377 9.87486 31.377 9.8755C31.377 9.87614 31.377 9.87679 31.377 9.87743C31.377 9.87807 31.377 9.87871 31.377 9.87935C31.377 9.87999 31.377 9.88063 31.377 9.88127C31.377 9.88191 31.377 9.88255 31.377 9.88319C31.377 9.88383 31.377 9.88447 31.377 9.88511C31.377 9.88575 31.377 9.88639 31.377 9.88703C31.377 9.88767 31.377 9.88831 31.377 9.88895C31.377 9.88958 31.377 9.89022 31.377 9.89086C31.377 9.8915 31.377 9.89214 31.377 9.89278C31.377 9.89341 31.377 9.89405 31.377 9.89469C31.377 9.89533 31.377 9.89596 31.377 9.8966C31.377 9.89724 31.377 9.89788 31.377 9.89851C31.377 9.89915 31.377 9.89979 31.377 9.90042C31.377 9.90106 31.377 9.9017 31.377 9.90233C31.377 9.90297 31.377 9.9036 31.377 9.90424C31.377 9.90487 31.377 9.90551 31.377 9.90615C31.377 9.90678 31.377 9.90742 31.377 9.90805C31.377 9.90869 31.377 9.90932 31.377 9.90996C31.377 9.91059 31.377 9.91122 31.377 9.91186C31.377 9.91249 31.377 9.91313 31.377 9.91376C31.377 9.91439 31.377 9.91503 31.377 9.91566C31.377 9.91629 31.377 9.91693 31.377 9.91756C31.377 9.91819 31.377 9.91883 31.377 9.91946C31.377 9.92009 31.377 9.92072 31.377 9.92136C31.377 9.92199 31.377 9.92262 31.377 9.92325C31.377 9.92389 31.377 9.92452 31.377 9.92515C31.377 9.92578 31.377 9.92641 31.377 9.92704C31.377 9.92767 31.377 9.92831 31.377 9.92894C31.377 9.92957 31.377 9.9302 31.377 9.93083C31.377 9.93146 31.377 9.93209 31.377 9.93272C31.377 9.93335 31.377 9.93398 31.377 9.93461C31.377 9.93524 31.377 9.93587 31.377 9.9365C31.377 9.93713 31.377 9.93776 31.377 9.93839C31.377 9.93902 31.377 9.93965 31.377 9.94028C31.377 9.9409 31.377 9.94153 31.377 9.94216C31.377 9.94279 31.377 9.94342 31.377 9.94405C31.377 9.94467 31.377 9.9453 31.377 9.94593C31.377 9.94656 31.377 9.94719 31.377 9.94781C31.377 9.94844 31.377 9.94907 31.377 9.9497C31.377 9.95032 31.377 9.95095 31.377 9.95158C31.377 9.9522 31.377 9.95283 31.377 9.95346C31.377 9.95408 31.377 9.95471 31.377 9.95534C31.377 9.95596 31.377 9.95659 31.377 9.95721C31.377 9.95784 31.377 9.95847 31.377 9.95909C31.377 9.95972 31.377 9.96034 31.377 9.96097C31.377 9.96159 31.377 9.96222 31.377 9.96284C31.377 9.96347 31.377 9.96409 31.377 9.96472C31.377 9.96534 31.377 9.96597 31.377 9.96659C31.377 9.96722 31.377 9.96784 31.377 9.96846C31.377 9.96909 31.377 9.96971 31.377 9.97034C31.377 9.97096 31.377 9.97158 31.377 9.97221C31.377 9.97283 31.377 9.97345 31.377 9.97408C31.377 9.9747 31.377 9.97532 31.377 9.97595C31.377 9.97657 31.377 9.97719 31.377 9.97781C31.377 9.97844 31.377 9.97906 31.377 9.97968C31.377 9.9803 31.377 9.98093 31.377 9.98155C31.377 9.98217 31.377 9.98279 31.377 9.98341C31.377 9.98403 31.377 9.98466 31.377 9.98528C31.377 9.9859 31.377 9.98652 31.377 9.98714C31.377 9.98776 31.377 9.98838 31.377 9.989C31.377 9.98962 31.377 9.99024 31.377 9.99087C31.377 9.99149 31.377 9.99211 31.377 9.99273C31.377 9.99335 31.377 9.99397 31.377 9.99459C31.377 9.99521 31.377 9.99583 31.377 9.99645C31.377 9.99707 31.377 9.99768 31.377 9.9983C31.377 9.99892 31.377 9.99954 31.377 10.0002C31.377 10.0008 31.377 10.0014 31.377 10.002C31.377 10.0026 31.377 10.0033 31.377 10.0039C31.377 10.0045 31.377 10.0051 31.377 10.0057C31.377 10.0063 31.377 10.007 31.377 10.0076C31.377 10.0082 31.377 10.0088 31.377 10.0094C31.377 10.0101 31.377 10.0107 31.377 10.0113C31.377 10.0119 31.377 10.0125 31.377 10.0131C31.377 10.0138 31.377 10.0144 31.377 10.015C31.377 10.0156 31.377 10.0162 31.377 10.0168C31.377 10.0175 31.377 10.0181 31.377 10.0187C31.377 10.0193 31.377 10.0199 31.377 10.0205C31.377 10.0212 31.377 10.0218 31.377 10.0224C31.377 10.023 31.377 10.0236 31.377 10.0242C31.377 10.0249 31.377 10.0255 31.377 10.0261C31.377 10.0267 31.377 10.0273 31.377 10.0279C31.377 10.0285 31.377 10.0292 31.377 10.0298C31.377 10.0304 31.377 10.031 31.377 10.0316C31.377 10.0322 31.377 10.0329 31.377 10.0335C31.377 10.0341 31.377 10.0347 31.377 10.0353C31.377 10.0359 31.377 10.0365 31.377 10.0372C31.377 10.0378 31.377 10.0384 31.377 10.039C31.377 10.0396 31.377 10.0402 31.377 10.0408C31.377 10.0414 31.377 10.0421 31.377 10.0427C31.377 10.0433 31.377 10.0439 31.377 10.0445C31.377 10.0451 31.377 10.0457 31.377 10.0464C31.377 10.047 31.377 10.0476 31.377 10.0482C31.377 10.0488 31.377 10.0494 31.377 10.05C31.377 10.0506 31.377 10.0513 31.377 10.0519C31.377 10.0525 31.377 10.0531 31.377 10.0537C31.377 10.0543 31.377 10.0549 31.377 10.0555C31.377 10.0562 31.377 10.0568 31.377 10.0574C31.377 10.058 31.377 10.0586 31.377 10.0592C31.377 10.0598 31.377 10.0604 31.377 10.061C31.377 10.0617 31.377 10.0623 31.377 10.0629C31.377 10.0635 31.377 10.0641 31.377 10.0647C31.377 10.0653 31.377 10.0659 31.377 10.0665C31.377 10.0672 31.377 10.0678 31.377 10.0684C31.377 10.069 31.377 10.0696 31.377 10.0702C31.377 10.0708 31.377 10.0714 31.377 10.072C31.377 10.0726 31.377 10.0733 31.377 10.0739C31.377 10.0745 31.377 10.0751 31.377 10.0757C31.377 10.0763 31.377 10.0769 31.377 10.0775C31.377 10.0781 31.377 10.0787 31.377 10.0794C31.377 10.08 31.377 10.0806 31.377 10.0812C31.377 10.0818 31.377 10.0824 31.377 10.083C31.377 10.0836 31.377 10.0842 31.377 10.0848C31.377 10.0854 31.377 10.086 31.377 10.0867C31.377 10.0873 31.377 10.0879 31.377 10.0885C31.377 10.0891 31.377 10.0897 31.377 10.0903C31.377 10.0909 31.377 10.0915 31.377 10.0921C31.377 10.0927 31.377 10.0933 31.377 10.094C31.377 10.0946 31.377 10.0952 31.377 10.0958C31.377 10.0964 31.377 10.097 31.377 10.0976C31.377 10.0982 31.377 10.0988 31.377 10.0994C31.377 10.1 31.377 10.1006 31.377 10.1012C31.377 10.1019 31.377 10.1025 31.377 10.1031C31.377 10.1037 31.377 10.1043 31.377 10.1049C31.377 10.1055 31.377 10.1061 31.377 10.1067C31.377 10.1073 31.377 10.1079 31.377 10.1085C31.377 10.1091 31.377 10.1097 31.377 10.1103C31.377 10.111 31.377 10.1116 31.377 10.1122C31.377 10.1128 31.377 10.1134 31.377 10.114C31.377 10.1146 31.377 10.1152 31.377 10.1158C31.377 10.1164 31.377 10.117 31.377 10.1176C31.377 10.1182 31.377 10.1188 31.377 10.1194C31.377 10.12 31.377 10.1206 31.377 10.1213C31.377 10.1219 31.377 10.1225 31.377 10.1231C31.377 10.1237 31.377 10.1243 31.377 10.1249C31.377 10.1255 31.377 10.1261 31.377 10.1267C31.377 10.1273 31.377 10.1279 31.377 10.1285C31.377 10.1291 31.377 10.1297 31.377 10.1303C31.377 10.1309 31.377 10.1315 31.377 10.1321C31.377 10.1328 31.377 10.1334 31.377 10.134C31.377 10.1346 31.377 10.1352 31.377 10.1358C31.377 10.1364 31.377 10.137 31.377 10.1376C31.377 10.1382 31.377 10.1388 31.377 10.1394C31.377 10.14 31.377 10.1406 31.377 10.1412C31.377 10.1418 31.377 10.1424 31.377 10.143C31.377 10.1436 31.377 10.1442 31.377 10.1448C31.377 10.1454 31.377 10.146 31.377 10.1466C31.377 10.1473 31.377 10.1479 31.377 10.1485C31.377 10.1491 31.377 10.1497 31.377 10.1503C31.377 10.1509 31.377 10.1515 31.377 10.1521C31.377 10.1527 31.377 10.1533 31.377 10.1539C31.377 10.1545 31.377 10.1551 31.377 10.1557C31.377 10.1563 31.377 10.1569 31.377 10.1575C31.377 10.1581 31.377 10.1587 31.377 10.1593C31.377 10.1599 31.377 10.1605 31.377 10.1611C31.377 10.1617 31.377 10.1623 31.377 10.1629C31.377 10.1635 31.377 10.1641 31.377 10.1647C31.377 10.1653 31.377 10.166 31.377 10.1666C31.377 10.1672 31.377 10.1678 31.377 10.1684C31.377 10.169 31.377 10.1696 31.377 10.1702C31.377 10.1708 31.377 10.1714 31.377 10.172C31.377 10.1726 31.377 10.1732 31.377 10.1738C31.377 10.1744 31.377 10.175 31.377 10.1756C31.377 10.1762 31.377 10.1768 31.377 10.1774C31.377 10.178 31.377 10.1786 31.377 10.1792C31.377 10.1798 31.377 10.1804 31.377 10.181C31.377 10.1816 31.377 10.1822 31.377 10.1828C31.377 10.1834 31.377 10.184 31.377 10.1846C31.377 10.1852 31.377 10.1858 31.377 10.1864C31.377 10.187 31.377 10.1876 31.377 10.1882C31.377 10.1888 31.377 10.1894 31.377 10.19C31.377 10.1906 31.377 10.1912 31.377 10.1918C31.377 10.1924 31.377 10.193 31.377 10.1936C31.377 10.1943 31.377 10.1949 31.377 10.1955C31.377 10.1961 31.377 10.1967 31.377 10.1973C31.377 10.1979 31.377 10.1985 31.377 10.1991C31.377 10.1997 31.377 10.2003 31.377 10.2009C31.377 10.2015 31.377 10.2021 31.377 10.2027C31.377 10.2033 31.377 10.2039 31.377 10.2045C31.377 10.2051 31.377 10.2057 31.377 10.2063C31.377 10.2069 31.377 10.2075 31.377 10.2081C31.377 10.2087 31.377 10.2093 31.377 10.2099C31.377 10.2105 31.377 10.2111 31.377 10.2117C31.377 10.2123 31.377 10.2129 31.377 10.2135C31.377 10.2141 31.377 10.2147 31.377 10.2153C31.377 10.2159 31.377 10.2165 31.377 10.2171C31.377 10.2177 31.377 10.2183 31.377 10.2189C31.377 10.2195 31.377 10.2201 31.377 10.2207C31.377 10.2213 31.377 10.2219 31.377 10.2225C31.377 10.2231 31.377 10.2237 31.377 10.2243C31.377 10.2249 31.377 10.2255 31.377 10.2261C31.377 10.2267 31.377 10.2273 31.377 10.2279C31.377 10.2285 31.377 10.2291 31.377 10.2297C31.377 10.2303 31.377 10.2309 31.377 10.2315C31.377 10.2321 31.377 10.2327 31.377 10.2333C31.377 10.2339 31.377 10.2345 31.377 10.2351C31.377 10.2357 31.377 10.2363 31.377 10.2369C31.377 10.2375 31.377 10.2381 31.377 10.2387C31.377 10.2393 31.377 10.2399 31.377 10.2405C31.377 10.2411 31.377 10.2417 31.377 10.2423C31.377 10.2429 31.377 10.2435 31.377 10.2441C31.377 10.2447 31.377 10.2453 31.377 10.2459C31.377 10.2465 31.377 10.2471 31.377 10.2477C31.377 10.2483 31.377 10.2489 31.377 10.2495C31.377 10.2501 31.377 10.2507 31.377 10.2514C31.377 10.252 31.377 10.2526 31.377 10.2532C31.377 10.2538 31.377 10.2544 31.377 10.255C31.377 10.2556 31.377 10.2562 31.377 10.2568C31.377 10.2574 31.377 10.258 31.377 10.2586C31.377 10.2592 31.377 10.2598 31.377 10.2604C31.377 10.261 31.377 10.2616 31.377 10.2622C31.377 10.2628 31.377 10.2634 31.377 10.264C31.377 10.2646 31.377 10.2652 31.377 10.2658C31.377 10.2664 31.377 10.267 31.377 10.2676C31.377 10.2682 31.377 10.2688 31.377 10.2694C31.377 10.27 31.377 10.2706 31.377 10.2712C31.377 10.2718 31.377 10.2724 31.377 10.273C31.377 10.2736 31.377 10.2742 31.377 10.2748C31.377 10.2754 31.377 10.276 31.377 10.2766C31.377 10.2772 31.377 10.2778 31.377 10.2784C31.377 10.279 31.377 10.2796 31.377 10.2802C31.377 10.2808 31.377 10.2814 31.377 10.282C31.377 10.2826 31.377 10.2832 31.377 10.2838C31.377 10.2844 31.377 10.285 31.377 10.2856C31.377 10.2862 31.377 10.2868 31.377 10.2874C31.377 10.288 31.377 10.2886 31.377 10.2892C31.377 10.2898 31.377 10.2904 31.377 10.291C31.377 10.2916 31.377 10.2922 31.377 10.2928C31.377 10.2934 31.377 10.294 31.377 10.2946C31.377 10.2952 31.377 10.2958 31.377 10.2964C31.377 10.297 31.377 10.2976 31.377 10.2982C31.377 10.2988 31.377 10.2994 31.377 10.3C31.377 10.3006 31.377 10.3013 31.377 10.3019C31.377 10.3025 31.377 10.3031 31.377 10.3037C31.377 10.3043 31.377 10.3049 31.377 10.3055C31.377 10.3061 31.377 10.3067 31.377 10.3073C31.377 10.3079 31.377 10.3085 31.377 10.3091C31.377 10.3097 31.377 10.3103 31.377 10.3109C31.377 10.3115 31.377 10.3121 31.377 10.3127C31.377 10.3133 31.377 10.3139 31.377 10.3145C31.377 10.3151 31.377 10.3157 31.377 10.3163C31.377 10.3169 31.377 10.3175 31.377 10.3181C31.377 10.3187 31.377 10.3193 31.377 10.3199C31.377 10.3205 31.377 10.3211 31.377 10.3217C31.377 10.3223 31.377 10.3229 31.377 10.3235C31.377 10.3241 31.377 10.3247 31.377 10.3253C31.377 10.3259 31.377 10.3265 31.377 10.3272C31.377 10.3278 31.377 10.3284 31.377 10.329C31.377 10.3296 31.377 10.3302 31.377 10.3308C31.377 10.3314 31.377 10.332 31.377 10.3326C31.377 10.3332 31.377 10.3338 31.377 10.3344C31.377 10.335 31.377 10.3356 31.377 10.3362C31.377 10.3368 31.377 10.3374 31.377 10.338C31.377 10.3386 31.377 10.3392 31.377 10.3398C31.377 10.3404 31.377 10.341 31.377 10.3416C31.377 10.3422 31.377 10.3428 31.377 10.3434C31.377 10.344 31.377 10.3447 31.377 10.3453C31.377 10.3459 31.377 10.3465 31.377 10.3471C31.377 10.3477 31.377 10.3483 31.377 10.3489C31.377 10.3495 31.377 10.3501 31.377 10.3507C31.377 10.3513 31.377 10.3519 31.377 10.3525C31.377 10.3531 31.377 10.3537 31.377 10.3543C31.377 10.3549 31.377 10.3555 31.377 10.3561C31.377 10.3567 31.377 10.3573 31.377 10.3579C31.377 10.3586 31.377 10.3592 31.377 10.3598C31.377 10.3604 31.377 10.361 31.377 10.3616C31.377 10.3622 31.377 10.3628 31.377 10.3634C31.377 10.364 31.377 10.3646 31.377 10.3652C31.377 10.3658 31.377 10.3664 31.377 10.367C31.377 10.3676 31.377 10.3682 31.377 10.3688C31.377 10.3694 31.377 10.3701 31.377 10.3707C31.377 10.3713 31.377 10.3719 31.377 10.3725C31.377 10.3731 31.377 10.3737 31.377 10.3743C31.377 10.3749 31.377 10.3755 31.377 10.3761C31.377 10.3767 31.377 10.3773 31.377 10.3779C31.377 10.3785 31.377 10.3791 31.377 10.3798C31.377 10.3804 31.377 10.381 31.377 10.3816C31.377 10.3822 31.377 10.3828 31.377 10.3834C31.377 10.384 31.377 10.3846 31.377 10.3852C31.377 10.3858 31.377 10.3864 31.377 10.387C31.377 10.3876 31.377 10.3883 31.377 10.3889C31.377 10.3895 31.377 10.3901 31.377 10.3907C31.377 10.3913 31.377 10.3919 31.377 10.3925C31.377 10.3931 31.377 10.3937 31.377 10.3943C31.377 10.3949 31.377 10.3955 31.377 10.3961C31.377 10.3968 31.377 10.3974 31.377 10.398C31.377 10.3986 31.377 10.3992 31.377 10.3998C31.377 10.4004 31.377 10.401 31.377 10.4016C31.377 10.4022 31.377 10.4028 31.377 10.4035C31.377 10.4041 31.377 10.4047 31.377 10.4053C31.377 10.4059 31.377 10.4065 31.377 10.4071C31.377 10.4077 31.377 10.4083 31.377 10.4089C31.377 10.4095 31.377 10.4101 31.377 10.4108C31.377 10.4114 31.377 10.412 31.377 10.4126C31.377 10.4132 31.377 10.4138 31.377 10.4144C31.377 10.415 31.377 10.4156 31.377 10.4162C31.377 10.4169 31.377 10.4175 31.377 10.4181C31.377 10.4187 31.377 10.4193 31.377 10.4199C31.377 10.4205 31.377 10.4211 31.377 10.4217C31.377 10.4223 31.377 10.423 31.377 10.4236C31.377 10.4242 31.377 10.4248 31.377 10.4254C31.377 10.426 31.377 10.4266 31.377 10.4272C31.377 10.4278 31.377 10.4285 31.377 10.4291C31.377 10.4297 31.377 10.4303 31.377 10.4309C31.377 10.4315 31.377 10.4321 31.377 10.4327C31.377 10.4334 31.377 10.434 31.377 10.4346C31.377 10.4352 31.377 10.4358 31.377 10.4364C31.377 10.437 31.377 10.4376 31.377 10.4383C31.377 10.4389 31.377 10.4395 31.377 10.4401C31.377 10.4407 31.377 10.4413 31.377 10.4419C31.377 10.4425 31.377 10.4432 31.377 10.4438C31.377 10.4444 31.377 10.445 31.377 10.4456C31.377 10.4462 31.377 10.4468 31.377 10.4474C31.377 10.4481 31.377 10.4487 31.377 10.4493C31.377 10.4499 31.377 10.4505 31.377 10.4511C31.377 10.4517 31.377 10.4524 31.377 10.453C31.377 10.4536 31.377 10.4542 31.377 10.4548C31.377 10.4554 31.377 10.456 31.377 10.4567C31.377 10.4573 31.377 10.4579 31.377 10.4585C31.377 10.4591 31.377 10.4597 31.377 10.4603C31.377 10.461 31.377 10.4616 31.377 10.4622C31.377 10.4628 31.377 10.4634 31.377 10.464C31.377 10.4647 31.377 10.4653 31.377 10.4659C31.377 10.4665 31.377 10.4671 31.377 10.4677C31.377 10.4684 31.377 10.469 31.377 10.4696C31.377 10.4702 31.377 10.4708 31.377 10.4714C31.377 10.4721 31.377 10.4727 31.377 10.4733C31.377 10.4739 31.377 10.4745 31.377 10.4751C31.377 10.4758 31.377 10.4764 31.377 10.477C31.377 10.4776 31.377 10.4782 31.377 10.4788C31.377 10.4795 31.377 10.4801 31.377 10.4807C31.377 10.4813 31.377 10.4819 31.377 10.4826C31.377 10.4832 31.377 10.4838 31.377 10.4844C31.377 10.485 31.377 10.4856 31.377 10.4863C31.377 10.4869 31.377 10.4875 31.377 10.4881C31.377 10.4887 31.377 10.4894 31.377 10.49C31.377 10.4906 31.377 10.4912 31.377 10.4918C31.377 10.4925 31.377 10.4931 31.377 10.4937C31.377 10.4943 31.377 10.4949 31.377 10.4956C31.377 10.4962 31.377 10.4968 31.377 10.4974C31.377 10.498 31.377 10.4987 31.377 10.4993C31.377 10.4999 31.377 10.5005 31.377 10.5011C31.377 10.5018 31.377 10.5024 31.377 10.503C31.377 10.5036 31.377 10.5042 31.377 10.5049C31.377 10.5055 31.377 10.5061 31.377 10.5067C31.377 10.5074 31.377 10.508 31.377 10.5086C31.377 10.5092 31.377 10.5098 31.377 10.5105C31.377 10.5111 31.377 10.5117 31.377 10.5123C31.377 10.513 31.377 10.5136 31.377 10.5142C31.377 10.5148 31.377 10.5155 31.377 10.5161C31.377 10.5167 31.377 10.5173 31.377 10.5179C31.377 10.5186 31.377 10.5192 31.377 10.5198C31.377 10.5204 31.377 10.5211 31.377 10.5217C31.377 10.5223 31.377 10.5229 31.377 10.5236C31.377 10.5242 31.377 10.5248 31.377 10.5254C31.377 10.5261 31.377 10.5267 31.377 10.5273C31.377 10.5279 31.377 10.5286 31.377 10.5292C31.377 10.5298 31.377 10.5304 31.377 10.5311C31.377 10.5317 31.377 10.5323 31.377 10.5329C31.377 10.5336 31.377 10.5342 31.377 10.5348C31.377 10.5355 31.377 10.5361 31.377 10.5367C31.377 10.5373 31.377 10.538 31.377 10.5386C31.377 10.5392 31.377 10.5398 31.377 10.5405C31.377 10.5411 31.377 10.5417 31.377 10.5424C31.377 10.543 31.377 10.5436 31.377 10.5442C31.377 10.5449 31.377 10.5455 31.377 10.5461C31.377 10.5467 31.377 10.5474 31.377 10.548C31.377 10.5486 31.377 10.5493 31.377 10.5499C31.377 10.5505 31.377 10.5512 31.377 10.5518C31.377 10.5524 31.377 10.553 31.377 10.5537C31.377 10.5543 31.377 10.5549 31.377 10.5556C31.377 10.5562 31.377 10.5568 31.377 10.5575C31.377 10.5581 31.377 10.5587 31.377 10.5593C31.377 10.56 31.377 10.5606 31.377 10.5612C31.377 10.5619 31.377 10.5625 31.377 10.5631C31.377 10.5638 31.377 10.5644 31.377 10.565C31.377 10.5657 31.377 10.5663 31.377 10.5669C31.377 10.5676 31.377 10.5682 31.377 10.5688C31.377 10.5695 31.377 10.5701 31.377 10.5707C31.377 10.5714 31.377 10.572 31.377 10.5726C31.377 10.5733 31.377 10.5739 31.377 10.5745C31.377 10.5752 31.377 10.5758 31.377 10.5764C31.377 10.5771 31.377 10.5777 31.377 10.5783C31.377 10.579 31.377 10.5796 31.377 10.5802C31.377 10.5809 31.377 10.5815 31.377 10.5821C31.377 10.5828 31.377 10.5834 31.377 10.584C31.377 10.5847 31.377 10.5853 31.377 10.5859C31.377 10.5866 31.377 10.5872 31.377 10.5879C31.377 10.5885 31.377 10.5891 31.377 10.5898C31.377 10.5904 31.377 10.591 31.377 10.5917C31.377 10.5923 31.377 10.593 31.377 10.5936C31.377 10.5942 31.377 10.5949 31.377 10.5955C31.377 10.5961 31.377 10.5968 31.377 10.5974C31.377 10.5981 31.377 10.5987 31.377 10.5993C31.377 10.6 31.377 10.6006 31.377 10.6013C31.377 10.6019 31.377 10.6025 31.377 10.6032C31.377 10.6038 31.377 10.6044 31.377 10.6051C31.377 10.6057 31.377 10.6064 31.377 10.607C31.377 10.6077 31.377 10.6083 31.377 10.6089C31.377 10.6096 31.377 10.6102 31.377 10.6109C31.377 10.6115 31.377 10.6121 31.377 10.6128C31.377 10.6134 31.377 10.6141 31.377 10.6147C31.377 10.6153 31.377 10.616 31.377 10.6166C31.377 10.6173 31.377 10.6179 31.377 10.6186C31.377 10.6192 31.377 10.6198 31.377 10.6205C31.377 10.6211 31.377 10.6218 31.377 10.6224C31.377 10.6231 31.377 10.6237 31.377 10.6243C31.377 10.625 31.377 10.6256 31.377 10.6263C31.377 10.6269 31.377 10.6276 31.377 10.6282C31.377 10.6289 31.377 10.6295 31.377 10.6302C31.377 10.6308 31.377 10.6314 31.377 10.6321C31.377 10.6327 31.377 10.6334 31.377 10.634C31.377 10.6347 31.377 10.6353 31.377 10.636C31.377 10.6366 31.377 10.6373 31.377 10.6379C31.377 10.6386 31.377 10.6392 31.377 10.6398C31.377 10.6405 31.377 10.6411 31.377 10.6418C31.377 10.6424 31.377 10.6431 31.377 10.6437C31.377 10.6444 31.377 10.645 31.377 10.6457C31.377 10.6463 31.377 10.647 31.377 10.6476C31.377 10.6483 31.377 10.6489 31.377 10.6496C31.377 10.6502 31.377 10.6509 31.377 10.6515C31.377 10.6522 31.377 10.6528 31.377 10.6535C31.377 10.6541 31.377 10.6548 31.377 10.6554C31.377 10.6561 31.377 10.6567 31.377 10.6574C31.377 10.658 31.377 10.6587 31.377 10.6593C31.377 10.66 31.377 10.6606 31.377 10.6613C31.377 10.6619 31.377 10.6626 31.377 10.6633C31.377 10.6639 31.377 10.6646 31.377 10.6652C31.377 10.6659 31.377 10.6665 31.377 10.6672C31.377 10.6678 31.377 10.6685 31.377 10.6691C31.377 10.6698 31.377 10.6704 31.377 10.6711C31.377 10.6718 31.377 10.6724 31.377 10.6731C31.377 10.6737 31.377 10.6744 31.377 10.675C31.377 10.6757 31.377 10.6763 31.377 10.677C31.377 10.6777 31.377 10.6783 31.377 10.679C31.377 10.6796 31.377 10.6803 31.377 10.6809C31.377 10.6816 31.377 10.6822 31.377 10.6829C31.377 10.6836 31.377 10.6842 31.377 10.6849C31.377 10.6855 31.377 10.6862 31.377 10.6869C31.377 10.6875 31.377 10.6882 31.377 10.6888C31.377 10.6895 31.377 10.6901 31.377 10.6908C31.377 10.6915 31.377 10.6921 31.377 10.6928C31.377 10.6934 31.377 10.6941 31.377 10.6948C31.377 10.6954 31.377 10.6961 31.377 10.6968C31.377 10.6974 31.377 10.6981 31.377 10.6987C31.377 10.6994 31.377 10.7001 31.377 10.7007C31.377 10.7014 31.377 10.702 31.377 10.7027C31.377 10.7034 31.377 10.704 31.377 10.7047C31.377 10.7054 31.377 10.706 31.377 10.7067C31.377 10.7073 31.377 10.708 31.377 10.7087C31.377 10.7093 31.377 10.71 31.377 10.7107C31.377 10.7113 31.377 10.712 31.377 10.7127C31.377 10.7133 31.377 10.714 31.377 10.7147C31.377 10.7153 31.377 10.716 31.377 10.7167C31.377 10.7173 31.377 10.718 31.377 10.7187C31.377 10.7193 31.377 10.72 31.377 10.7207C31.377 10.7213 31.377 10.722 31.377 10.7227H32.377H33.377C33.377 10.722 33.377 10.7213 33.377 10.7207C33.377 10.72 33.377 10.7193 33.377 10.7187C33.377 10.718 33.377 10.7173 33.377 10.7167C33.377 10.716 33.377 10.7153 33.377 10.7147C33.377 10.714 33.377 10.7133 33.377 10.7127C33.377 10.712 33.377 10.7113 33.377 10.7107C33.377 10.71 33.377 10.7093 33.377 10.7087C33.377 10.708 33.377 10.7073 33.377 10.7067C33.377 10.706 33.377 10.7054 33.377 10.7047C33.377 10.704 33.377 10.7034 33.377 10.7027C33.377 10.702 33.377 10.7014 33.377 10.7007C33.377 10.7001 33.377 10.6994 33.377 10.6987C33.377 10.6981 33.377 10.6974 33.377 10.6968C33.377 10.6961 33.377 10.6954 33.377 10.6948C33.377 10.6941 33.377 10.6934 33.377 10.6928C33.377 10.6921 33.377 10.6915 33.377 10.6908C33.377 10.6901 33.377 10.6895 33.377 10.6888C33.377 10.6882 33.377 10.6875 33.377 10.6869C33.377 10.6862 33.377 10.6855 33.377 10.6849C33.377 10.6842 33.377 10.6836 33.377 10.6829C33.377 10.6822 33.377 10.6816 33.377 10.6809C33.377 10.6803 33.377 10.6796 33.377 10.679C33.377 10.6783 33.377 10.6777 33.377 10.677C33.377 10.6763 33.377 10.6757 33.377 10.675C33.377 10.6744 33.377 10.6737 33.377 10.6731C33.377 10.6724 33.377 10.6718 33.377 10.6711C33.377 10.6704 33.377 10.6698 33.377 10.6691C33.377 10.6685 33.377 10.6678 33.377 10.6672C33.377 10.6665 33.377 10.6659 33.377 10.6652C33.377 10.6646 33.377 10.6639 33.377 10.6633C33.377 10.6626 33.377 10.6619 33.377 10.6613C33.377 10.6606 33.377 10.66 33.377 10.6593C33.377 10.6587 33.377 10.658 33.377 10.6574C33.377 10.6567 33.377 10.6561 33.377 10.6554C33.377 10.6548 33.377 10.6541 33.377 10.6535C33.377 10.6528 33.377 10.6522 33.377 10.6515C33.377 10.6509 33.377 10.6502 33.377 10.6496C33.377 10.6489 33.377 10.6483 33.377 10.6476C33.377 10.647 33.377 10.6463 33.377 10.6457C33.377 10.645 33.377 10.6444 33.377 10.6437C33.377 10.6431 33.377 10.6424 33.377 10.6418C33.377 10.6411 33.377 10.6405 33.377 10.6398C33.377 10.6392 33.377 10.6386 33.377 10.6379C33.377 10.6373 33.377 10.6366 33.377 10.636C33.377 10.6353 33.377 10.6347 33.377 10.634C33.377 10.6334 33.377 10.6327 33.377 10.6321C33.377 10.6314 33.377 10.6308 33.377 10.6302C33.377 10.6295 33.377 10.6289 33.377 10.6282C33.377 10.6276 33.377 10.6269 33.377 10.6263C33.377 10.6256 33.377 10.625 33.377 10.6243C33.377 10.6237 33.377 10.6231 33.377 10.6224C33.377 10.6218 33.377 10.6211 33.377 10.6205C33.377 10.6198 33.377 10.6192 33.377 10.6186C33.377 10.6179 33.377 10.6173 33.377 10.6166C33.377 10.616 33.377 10.6153 33.377 10.6147C33.377 10.6141 33.377 10.6134 33.377 10.6128C33.377 10.6121 33.377 10.6115 33.377 10.6109C33.377 10.6102 33.377 10.6096 33.377 10.6089C33.377 10.6083 33.377 10.6077 33.377 10.607C33.377 10.6064 33.377 10.6057 33.377 10.6051C33.377 10.6044 33.377 10.6038 33.377 10.6032C33.377 10.6025 33.377 10.6019 33.377 10.6013C33.377 10.6006 33.377 10.6 33.377 10.5993C33.377 10.5987 33.377 10.5981 33.377 10.5974C33.377 10.5968 33.377 10.5961 33.377 10.5955C33.377 10.5949 33.377 10.5942 33.377 10.5936C33.377 10.593 33.377 10.5923 33.377 10.5917C33.377 10.591 33.377 10.5904 33.377 10.5898C33.377 10.5891 33.377 10.5885 33.377 10.5879C33.377 10.5872 33.377 10.5866 33.377 10.5859C33.377 10.5853 33.377 10.5847 33.377 10.584C33.377 10.5834 33.377 10.5828 33.377 10.5821C33.377 10.5815 33.377 10.5809 33.377 10.5802C33.377 10.5796 33.377 10.579 33.377 10.5783C33.377 10.5777 33.377 10.5771 33.377 10.5764C33.377 10.5758 33.377 10.5752 33.377 10.5745C33.377 10.5739 33.377 10.5733 33.377 10.5726C33.377 10.572 33.377 10.5714 33.377 10.5707C33.377 10.5701 33.377 10.5695 33.377 10.5688C33.377 10.5682 33.377 10.5676 33.377 10.5669C33.377 10.5663 33.377 10.5657 33.377 10.565C33.377 10.5644 33.377 10.5638 33.377 10.5631C33.377 10.5625 33.377 10.5619 33.377 10.5612C33.377 10.5606 33.377 10.56 33.377 10.5593C33.377 10.5587 33.377 10.5581 33.377 10.5575C33.377 10.5568 33.377 10.5562 33.377 10.5556C33.377 10.5549 33.377 10.5543 33.377 10.5537C33.377 10.553 33.377 10.5524 33.377 10.5518C33.377 10.5512 33.377 10.5505 33.377 10.5499C33.377 10.5493 33.377 10.5486 33.377 10.548C33.377 10.5474 33.377 10.5467 33.377 10.5461C33.377 10.5455 33.377 10.5449 33.377 10.5442C33.377 10.5436 33.377 10.543 33.377 10.5424C33.377 10.5417 33.377 10.5411 33.377 10.5405C33.377 10.5398 33.377 10.5392 33.377 10.5386C33.377 10.538 33.377 10.5373 33.377 10.5367C33.377 10.5361 33.377 10.5355 33.377 10.5348C33.377 10.5342 33.377 10.5336 33.377 10.5329C33.377 10.5323 33.377 10.5317 33.377 10.5311C33.377 10.5304 33.377 10.5298 33.377 10.5292C33.377 10.5286 33.377 10.5279 33.377 10.5273C33.377 10.5267 33.377 10.5261 33.377 10.5254C33.377 10.5248 33.377 10.5242 33.377 10.5236C33.377 10.5229 33.377 10.5223 33.377 10.5217C33.377 10.5211 33.377 10.5204 33.377 10.5198C33.377 10.5192 33.377 10.5186 33.377 10.5179C33.377 10.5173 33.377 10.5167 33.377 10.5161C33.377 10.5155 33.377 10.5148 33.377 10.5142C33.377 10.5136 33.377 10.513 33.377 10.5123C33.377 10.5117 33.377 10.5111 33.377 10.5105C33.377 10.5098 33.377 10.5092 33.377 10.5086C33.377 10.508 33.377 10.5074 33.377 10.5067C33.377 10.5061 33.377 10.5055 33.377 10.5049C33.377 10.5042 33.377 10.5036 33.377 10.503C33.377 10.5024 33.377 10.5018 33.377 10.5011C33.377 10.5005 33.377 10.4999 33.377 10.4993C33.377 10.4987 33.377 10.498 33.377 10.4974C33.377 10.4968 33.377 10.4962 33.377 10.4956C33.377 10.4949 33.377 10.4943 33.377 10.4937C33.377 10.4931 33.377 10.4925 33.377 10.4918C33.377 10.4912 33.377 10.4906 33.377 10.49C33.377 10.4894 33.377 10.4887 33.377 10.4881C33.377 10.4875 33.377 10.4869 33.377 10.4863C33.377 10.4856 33.377 10.485 33.377 10.4844C33.377 10.4838 33.377 10.4832 33.377 10.4826C33.377 10.4819 33.377 10.4813 33.377 10.4807C33.377 10.4801 33.377 10.4795 33.377 10.4788C33.377 10.4782 33.377 10.4776 33.377 10.477C33.377 10.4764 33.377 10.4758 33.377 10.4751C33.377 10.4745 33.377 10.4739 33.377 10.4733C33.377 10.4727 33.377 10.4721 33.377 10.4714C33.377 10.4708 33.377 10.4702 33.377 10.4696C33.377 10.469 33.377 10.4684 33.377 10.4677C33.377 10.4671 33.377 10.4665 33.377 10.4659C33.377 10.4653 33.377 10.4647 33.377 10.464C33.377 10.4634 33.377 10.4628 33.377 10.4622C33.377 10.4616 33.377 10.461 33.377 10.4603C33.377 10.4597 33.377 10.4591 33.377 10.4585C33.377 10.4579 33.377 10.4573 33.377 10.4567C33.377 10.456 33.377 10.4554 33.377 10.4548C33.377 10.4542 33.377 10.4536 33.377 10.453C33.377 10.4524 33.377 10.4517 33.377 10.4511C33.377 10.4505 33.377 10.4499 33.377 10.4493C33.377 10.4487 33.377 10.4481 33.377 10.4474C33.377 10.4468 33.377 10.4462 33.377 10.4456C33.377 10.445 33.377 10.4444 33.377 10.4438C33.377 10.4432 33.377 10.4425 33.377 10.4419C33.377 10.4413 33.377 10.4407 33.377 10.4401C33.377 10.4395 33.377 10.4389 33.377 10.4383C33.377 10.4376 33.377 10.437 33.377 10.4364C33.377 10.4358 33.377 10.4352 33.377 10.4346C33.377 10.434 33.377 10.4334 33.377 10.4327C33.377 10.4321 33.377 10.4315 33.377 10.4309C33.377 10.4303 33.377 10.4297 33.377 10.4291C33.377 10.4285 33.377 10.4278 33.377 10.4272C33.377 10.4266 33.377 10.426 33.377 10.4254C33.377 10.4248 33.377 10.4242 33.377 10.4236C33.377 10.423 33.377 10.4223 33.377 10.4217C33.377 10.4211 33.377 10.4205 33.377 10.4199C33.377 10.4193 33.377 10.4187 33.377 10.4181C33.377 10.4175 33.377 10.4169 33.377 10.4162C33.377 10.4156 33.377 10.415 33.377 10.4144C33.377 10.4138 33.377 10.4132 33.377 10.4126C33.377 10.412 33.377 10.4114 33.377 10.4108C33.377 10.4101 33.377 10.4095 33.377 10.4089C33.377 10.4083 33.377 10.4077 33.377 10.4071C33.377 10.4065 33.377 10.4059 33.377 10.4053C33.377 10.4047 33.377 10.4041 33.377 10.4035C33.377 10.4028 33.377 10.4022 33.377 10.4016C33.377 10.401 33.377 10.4004 33.377 10.3998C33.377 10.3992 33.377 10.3986 33.377 10.398C33.377 10.3974 33.377 10.3968 33.377 10.3961C33.377 10.3955 33.377 10.3949 33.377 10.3943C33.377 10.3937 33.377 10.3931 33.377 10.3925C33.377 10.3919 33.377 10.3913 33.377 10.3907C33.377 10.3901 33.377 10.3895 33.377 10.3889C33.377 10.3883 33.377 10.3876 33.377 10.387C33.377 10.3864 33.377 10.3858 33.377 10.3852C33.377 10.3846 33.377 10.384 33.377 10.3834C33.377 10.3828 33.377 10.3822 33.377 10.3816C33.377 10.381 33.377 10.3804 33.377 10.3798C33.377 10.3791 33.377 10.3785 33.377 10.3779C33.377 10.3773 33.377 10.3767 33.377 10.3761C33.377 10.3755 33.377 10.3749 33.377 10.3743C33.377 10.3737 33.377 10.3731 33.377 10.3725C33.377 10.3719 33.377 10.3713 33.377 10.3707C33.377 10.3701 33.377 10.3694 33.377 10.3688C33.377 10.3682 33.377 10.3676 33.377 10.367C33.377 10.3664 33.377 10.3658 33.377 10.3652C33.377 10.3646 33.377 10.364 33.377 10.3634C33.377 10.3628 33.377 10.3622 33.377 10.3616C33.377 10.361 33.377 10.3604 33.377 10.3598C33.377 10.3592 33.377 10.3586 33.377 10.3579C33.377 10.3573 33.377 10.3567 33.377 10.3561C33.377 10.3555 33.377 10.3549 33.377 10.3543C33.377 10.3537 33.377 10.3531 33.377 10.3525C33.377 10.3519 33.377 10.3513 33.377 10.3507C33.377 10.3501 33.377 10.3495 33.377 10.3489C33.377 10.3483 33.377 10.3477 33.377 10.3471C33.377 10.3465 33.377 10.3459 33.377 10.3453C33.377 10.3447 33.377 10.344 33.377 10.3434C33.377 10.3428 33.377 10.3422 33.377 10.3416C33.377 10.341 33.377 10.3404 33.377 10.3398C33.377 10.3392 33.377 10.3386 33.377 10.338C33.377 10.3374 33.377 10.3368 33.377 10.3362C33.377 10.3356 33.377 10.335 33.377 10.3344C33.377 10.3338 33.377 10.3332 33.377 10.3326C33.377 10.332 33.377 10.3314 33.377 10.3308C33.377 10.3302 33.377 10.3296 33.377 10.329C33.377 10.3284 33.377 10.3278 33.377 10.3272C33.377 10.3265 33.377 10.3259 33.377 10.3253C33.377 10.3247 33.377 10.3241 33.377 10.3235C33.377 10.3229 33.377 10.3223 33.377 10.3217C33.377 10.3211 33.377 10.3205 33.377 10.3199C33.377 10.3193 33.377 10.3187 33.377 10.3181C33.377 10.3175 33.377 10.3169 33.377 10.3163C33.377 10.3157 33.377 10.3151 33.377 10.3145C33.377 10.3139 33.377 10.3133 33.377 10.3127C33.377 10.3121 33.377 10.3115 33.377 10.3109C33.377 10.3103 33.377 10.3097 33.377 10.3091C33.377 10.3085 33.377 10.3079 33.377 10.3073C33.377 10.3067 33.377 10.3061 33.377 10.3055C33.377 10.3049 33.377 10.3043 33.377 10.3037C33.377 10.3031 33.377 10.3025 33.377 10.3019C33.377 10.3013 33.377 10.3006 33.377 10.3C33.377 10.2994 33.377 10.2988 33.377 10.2982C33.377 10.2976 33.377 10.297 33.377 10.2964C33.377 10.2958 33.377 10.2952 33.377 10.2946C33.377 10.294 33.377 10.2934 33.377 10.2928C33.377 10.2922 33.377 10.2916 33.377 10.291C33.377 10.2904 33.377 10.2898 33.377 10.2892C33.377 10.2886 33.377 10.288 33.377 10.2874C33.377 10.2868 33.377 10.2862 33.377 10.2856C33.377 10.285 33.377 10.2844 33.377 10.2838C33.377 10.2832 33.377 10.2826 33.377 10.282C33.377 10.2814 33.377 10.2808 33.377 10.2802C33.377 10.2796 33.377 10.279 33.377 10.2784C33.377 10.2778 33.377 10.2772 33.377 10.2766C33.377 10.276 33.377 10.2754 33.377 10.2748C33.377 10.2742 33.377 10.2736 33.377 10.273C33.377 10.2724 33.377 10.2718 33.377 10.2712C33.377 10.2706 33.377 10.27 33.377 10.2694C33.377 10.2688 33.377 10.2682 33.377 10.2676C33.377 10.267 33.377 10.2664 33.377 10.2658C33.377 10.2652 33.377 10.2646 33.377 10.264C33.377 10.2634 33.377 10.2628 33.377 10.2622C33.377 10.2616 33.377 10.261 33.377 10.2604C33.377 10.2598 33.377 10.2592 33.377 10.2586C33.377 10.258 33.377 10.2574 33.377 10.2568C33.377 10.2562 33.377 10.2556 33.377 10.255C33.377 10.2544 33.377 10.2538 33.377 10.2532C33.377 10.2526 33.377 10.252 33.377 10.2514C33.377 10.2507 33.377 10.2501 33.377 10.2495C33.377 10.2489 33.377 10.2483 33.377 10.2477C33.377 10.2471 33.377 10.2465 33.377 10.2459C33.377 10.2453 33.377 10.2447 33.377 10.2441C33.377 10.2435 33.377 10.2429 33.377 10.2423C33.377 10.2417 33.377 10.2411 33.377 10.2405C33.377 10.2399 33.377 10.2393 33.377 10.2387C33.377 10.2381 33.377 10.2375 33.377 10.2369C33.377 10.2363 33.377 10.2357 33.377 10.2351C33.377 10.2345 33.377 10.2339 33.377 10.2333C33.377 10.2327 33.377 10.2321 33.377 10.2315C33.377 10.2309 33.377 10.2303 33.377 10.2297C33.377 10.2291 33.377 10.2285 33.377 10.2279C33.377 10.2273 33.377 10.2267 33.377 10.2261C33.377 10.2255 33.377 10.2249 33.377 10.2243C33.377 10.2237 33.377 10.2231 33.377 10.2225C33.377 10.2219 33.377 10.2213 33.377 10.2207C33.377 10.2201 33.377 10.2195 33.377 10.2189C33.377 10.2183 33.377 10.2177 33.377 10.2171C33.377 10.2165 33.377 10.2159 33.377 10.2153C33.377 10.2147 33.377 10.2141 33.377 10.2135C33.377 10.2129 33.377 10.2123 33.377 10.2117C33.377 10.2111 33.377 10.2105 33.377 10.2099C33.377 10.2093 33.377 10.2087 33.377 10.2081C33.377 10.2075 33.377 10.2069 33.377 10.2063C33.377 10.2057 33.377 10.2051 33.377 10.2045C33.377 10.2039 33.377 10.2033 33.377 10.2027C33.377 10.2021 33.377 10.2015 33.377 10.2009C33.377 10.2003 33.377 10.1997 33.377 10.1991C33.377 10.1985 33.377 10.1979 33.377 10.1973C33.377 10.1967 33.377 10.1961 33.377 10.1955C33.377 10.1949 33.377 10.1943 33.377 10.1936C33.377 10.193 33.377 10.1924 33.377 10.1918C33.377 10.1912 33.377 10.1906 33.377 10.19C33.377 10.1894 33.377 10.1888 33.377 10.1882C33.377 10.1876 33.377 10.187 33.377 10.1864C33.377 10.1858 33.377 10.1852 33.377 10.1846C33.377 10.184 33.377 10.1834 33.377 10.1828C33.377 10.1822 33.377 10.1816 33.377 10.181C33.377 10.1804 33.377 10.1798 33.377 10.1792C33.377 10.1786 33.377 10.178 33.377 10.1774C33.377 10.1768 33.377 10.1762 33.377 10.1756C33.377 10.175 33.377 10.1744 33.377 10.1738C33.377 10.1732 33.377 10.1726 33.377 10.172C33.377 10.1714 33.377 10.1708 33.377 10.1702C33.377 10.1696 33.377 10.169 33.377 10.1684C33.377 10.1678 33.377 10.1672 33.377 10.1666C33.377 10.166 33.377 10.1653 33.377 10.1647C33.377 10.1641 33.377 10.1635 33.377 10.1629C33.377 10.1623 33.377 10.1617 33.377 10.1611C33.377 10.1605 33.377 10.1599 33.377 10.1593C33.377 10.1587 33.377 10.1581 33.377 10.1575C33.377 10.1569 33.377 10.1563 33.377 10.1557C33.377 10.1551 33.377 10.1545 33.377 10.1539C33.377 10.1533 33.377 10.1527 33.377 10.1521C33.377 10.1515 33.377 10.1509 33.377 10.1503C33.377 10.1497 33.377 10.1491 33.377 10.1485C33.377 10.1479 33.377 10.1473 33.377 10.1466C33.377 10.146 33.377 10.1454 33.377 10.1448C33.377 10.1442 33.377 10.1436 33.377 10.143C33.377 10.1424 33.377 10.1418 33.377 10.1412C33.377 10.1406 33.377 10.14 33.377 10.1394C33.377 10.1388 33.377 10.1382 33.377 10.1376C33.377 10.137 33.377 10.1364 33.377 10.1358C33.377 10.1352 33.377 10.1346 33.377 10.134C33.377 10.1334 33.377 10.1328 33.377 10.1321C33.377 10.1315 33.377 10.1309 33.377 10.1303C33.377 10.1297 33.377 10.1291 33.377 10.1285C33.377 10.1279 33.377 10.1273 33.377 10.1267C33.377 10.1261 33.377 10.1255 33.377 10.1249C33.377 10.1243 33.377 10.1237 33.377 10.1231C33.377 10.1225 33.377 10.1219 33.377 10.1213C33.377 10.1206 33.377 10.12 33.377 10.1194C33.377 10.1188 33.377 10.1182 33.377 10.1176C33.377 10.117 33.377 10.1164 33.377 10.1158C33.377 10.1152 33.377 10.1146 33.377 10.114C33.377 10.1134 33.377 10.1128 33.377 10.1122C33.377 10.1116 33.377 10.111 33.377 10.1103C33.377 10.1097 33.377 10.1091 33.377 10.1085C33.377 10.1079 33.377 10.1073 33.377 10.1067C33.377 10.1061 33.377 10.1055 33.377 10.1049C33.377 10.1043 33.377 10.1037 33.377 10.1031C33.377 10.1025 33.377 10.1019 33.377 10.1012C33.377 10.1006 33.377 10.1 33.377 10.0994C33.377 10.0988 33.377 10.0982 33.377 10.0976C33.377 10.097 33.377 10.0964 33.377 10.0958C33.377 10.0952 33.377 10.0946 33.377 10.094C33.377 10.0933 33.377 10.0927 33.377 10.0921C33.377 10.0915 33.377 10.0909 33.377 10.0903C33.377 10.0897 33.377 10.0891 33.377 10.0885C33.377 10.0879 33.377 10.0873 33.377 10.0867C33.377 10.086 33.377 10.0854 33.377 10.0848C33.377 10.0842 33.377 10.0836 33.377 10.083C33.377 10.0824 33.377 10.0818 33.377 10.0812C33.377 10.0806 33.377 10.08 33.377 10.0794C33.377 10.0787 33.377 10.0781 33.377 10.0775C33.377 10.0769 33.377 10.0763 33.377 10.0757C33.377 10.0751 33.377 10.0745 33.377 10.0739C33.377 10.0733 33.377 10.0726 33.377 10.072C33.377 10.0714 33.377 10.0708 33.377 10.0702C33.377 10.0696 33.377 10.069 33.377 10.0684C33.377 10.0678 33.377 10.0672 33.377 10.0665C33.377 10.0659 33.377 10.0653 33.377 10.0647C33.377 10.0641 33.377 10.0635 33.377 10.0629C33.377 10.0623 33.377 10.0617 33.377 10.061C33.377 10.0604 33.377 10.0598 33.377 10.0592C33.377 10.0586 33.377 10.058 33.377 10.0574C33.377 10.0568 33.377 10.0562 33.377 10.0555C33.377 10.0549 33.377 10.0543 33.377 10.0537C33.377 10.0531 33.377 10.0525 33.377 10.0519C33.377 10.0513 33.377 10.0506 33.377 10.05C33.377 10.0494 33.377 10.0488 33.377 10.0482C33.377 10.0476 33.377 10.047 33.377 10.0464C33.377 10.0457 33.377 10.0451 33.377 10.0445C33.377 10.0439 33.377 10.0433 33.377 10.0427C33.377 10.0421 33.377 10.0414 33.377 10.0408C33.377 10.0402 33.377 10.0396 33.377 10.039C33.377 10.0384 33.377 10.0378 33.377 10.0372C33.377 10.0365 33.377 10.0359 33.377 10.0353C33.377 10.0347 33.377 10.0341 33.377 10.0335C33.377 10.0329 33.377 10.0322 33.377 10.0316C33.377 10.031 33.377 10.0304 33.377 10.0298C33.377 10.0292 33.377 10.0285 33.377 10.0279C33.377 10.0273 33.377 10.0267 33.377 10.0261C33.377 10.0255 33.377 10.0249 33.377 10.0242C33.377 10.0236 33.377 10.023 33.377 10.0224C33.377 10.0218 33.377 10.0212 33.377 10.0205C33.377 10.0199 33.377 10.0193 33.377 10.0187C33.377 10.0181 33.377 10.0175 33.377 10.0168C33.377 10.0162 33.377 10.0156 33.377 10.015C33.377 10.0144 33.377 10.0138 33.377 10.0131C33.377 10.0125 33.377 10.0119 33.377 10.0113C33.377 10.0107 33.377 10.0101 33.377 10.0094C33.377 10.0088 33.377 10.0082 33.377 10.0076C33.377 10.007 33.377 10.0063 33.377 10.0057C33.377 10.0051 33.377 10.0045 33.377 10.0039C33.377 10.0033 33.377 10.0026 33.377 10.002C33.377 10.0014 33.377 10.0008 33.377 10.0002C33.377 9.99954 33.377 9.99892 33.377 9.9983C33.377 9.99768 33.377 9.99707 33.377 9.99645C33.377 9.99583 33.377 9.99521 33.377 9.99459C33.377 9.99397 33.377 9.99335 33.377 9.99273C33.377 9.99211 33.377 9.99149 33.377 9.99087C33.377 9.99024 33.377 9.98962 33.377 9.989C33.377 9.98838 33.377 9.98776 33.377 9.98714C33.377 9.98652 33.377 9.9859 33.377 9.98528C33.377 9.98466 33.377 9.98403 33.377 9.98341C33.377 9.98279 33.377 9.98217 33.377 9.98155C33.377 9.98093 33.377 9.9803 33.377 9.97968C33.377 9.97906 33.377 9.97844 33.377 9.97781C33.377 9.97719 33.377 9.97657 33.377 9.97595C33.377 9.97532 33.377 9.9747 33.377 9.97408C33.377 9.97345 33.377 9.97283 33.377 9.97221C33.377 9.97158 33.377 9.97096 33.377 9.97034C33.377 9.96971 33.377 9.96909 33.377 9.96846C33.377 9.96784 33.377 9.96722 33.377 9.96659C33.377 9.96597 33.377 9.96534 33.377 9.96472C33.377 9.96409 33.377 9.96347 33.377 9.96284C33.377 9.96222 33.377 9.96159 33.377 9.96097C33.377 9.96034 33.377 9.95972 33.377 9.95909C33.377 9.95847 33.377 9.95784 33.377 9.95721C33.377 9.95659 33.377 9.95596 33.377 9.95534C33.377 9.95471 33.377 9.95408 33.377 9.95346C33.377 9.95283 33.377 9.9522 33.377 9.95158C33.377 9.95095 33.377 9.95032 33.377 9.9497C33.377 9.94907 33.377 9.94844 33.377 9.94781C33.377 9.94719 33.377 9.94656 33.377 9.94593C33.377 9.9453 33.377 9.94467 33.377 9.94405C33.377 9.94342 33.377 9.94279 33.377 9.94216C33.377 9.94153 33.377 9.9409 33.377 9.94028C33.377 9.93965 33.377 9.93902 33.377 9.93839C33.377 9.93776 33.377 9.93713 33.377 9.9365C33.377 9.93587 33.377 9.93524 33.377 9.93461C33.377 9.93398 33.377 9.93335 33.377 9.93272C33.377 9.93209 33.377 9.93146 33.377 9.93083C33.377 9.9302 33.377 9.92957 33.377 9.92894C33.377 9.92831 33.377 9.92767 33.377 9.92704C33.377 9.92641 33.377 9.92578 33.377 9.92515C33.377 9.92452 33.377 9.92389 33.377 9.92325C33.377 9.92262 33.377 9.92199 33.377 9.92136C33.377 9.92072 33.377 9.92009 33.377 9.91946C33.377 9.91883 33.377 9.91819 33.377 9.91756C33.377 9.91693 33.377 9.91629 33.377 9.91566C33.377 9.91503 33.377 9.91439 33.377 9.91376C33.377 9.91313 33.377 9.91249 33.377 9.91186C33.377 9.91122 33.377 9.91059 33.377 9.90996C33.377 9.90932 33.377 9.90869 33.377 9.90805C33.377 9.90742 33.377 9.90678 33.377 9.90615C33.377 9.90551 33.377 9.90487 33.377 9.90424C33.377 9.9036 33.377 9.90297 33.377 9.90233C33.377 9.9017 33.377 9.90106 33.377 9.90042C33.377 9.89979 33.377 9.89915 33.377 9.89851C33.377 9.89788 33.377 9.89724 33.377 9.8966C33.377 9.89596 33.377 9.89533 33.377 9.89469C33.377 9.89405 33.377 9.89341 33.377 9.89278C33.377 9.89214 33.377 9.8915 33.377 9.89086C33.377 9.89022 33.377 9.88958 33.377 9.88895C33.377 9.88831 33.377 9.88767 33.377 9.88703C33.377 9.88639 33.377 9.88575 33.377 9.88511C33.377 9.88447 33.377 9.88383 33.377 9.88319C33.377 9.88255 33.377 9.88191 33.377 9.88127C33.377 9.88063 33.377 9.87999 33.377 9.87935C33.377 9.87871 33.377 9.87807 33.377 9.87743C33.377 9.87679 33.377 9.87614 33.377 9.8755C33.377 9.87486 33.377 9.87422 33.377 9.87358C33.377 9.87294 33.377 9.87229 33.377 9.87165C33.377 9.87101 33.377 9.87037 33.377 9.86972C33.377 9.86908 33.377 9.86844 33.377 9.86779C33.377 9.86715 33.377 9.86651 33.377 9.86586C33.377 9.86522 33.377 9.86458 33.377 9.86393C33.377 9.86329 33.377 9.86264 33.377 9.862C33.377 9.86136 33.377 9.86071 33.377 9.86007C33.377 9.85942 33.377 9.85878 33.377 9.85813C33.377 9.85748 33.377 9.85684 33.377 9.85619C33.377 9.85555 33.377 9.8549 33.377 9.85426C33.377 9.85361 33.377 9.85296 33.377 9.85232C33.377 9.85167 33.377 9.85102 33.377 9.85038C33.377 9.84973 33.377 9.84908 33.377 9.84843C33.377 9.84779 33.377 9.84714 33.377 9.84649C33.377 9.84584 33.377 9.8452 33.377 9.84455C33.377 9.8439 33.377 9.84325 33.377 9.8426C33.377 9.84195 33.377 9.8413 33.377 9.84065C33.377 9.84001 33.377 9.83936 33.377 9.83871C33.377 9.83806 33.377 9.83741 33.377 9.83676C33.377 9.83611 33.377 9.83546 33.377 9.83481C33.377 9.83415 33.377 9.8335 33.377 9.83285C33.377 9.8322 33.377 9.83155 33.377 9.8309C33.377 9.83025 33.377 9.8296 33.377 9.82894C33.377 9.82829 33.377 9.82764 33.377 9.82699C33.377 9.82634 33.377 9.82568 33.377 9.82503C33.377 9.82438 33.377 9.82372 33.377 9.82307C33.377 9.82242 33.377 9.82176 33.377 9.82111C33.377 9.82046 33.377 9.8198 33.377 9.81915C33.377 9.81849 33.377 9.81784 33.377 9.81718C33.377 9.81653 33.377 9.81588 33.377 9.81522C33.377 9.81456 33.377 9.81391 33.377 9.81325C33.377 9.8126 33.377 9.81194 33.377 9.81129C33.377 9.81063 33.377 9.80997 33.377 9.80932C33.377 9.80866 33.377 9.808 33.377 9.80735C33.377 9.80669 33.377 9.80603 33.377 9.80537C33.377 9.80472 33.377 9.80406 33.377 9.8034C33.377 9.80274 33.377 9.80208 33.377 9.80143C33.377 9.80077 33.377 9.80011 33.377 9.79945C33.377 9.79879 33.377 9.79813 33.377 9.79747C33.377 9.79681 33.377 9.79615 33.377 9.79549C33.377 9.79483 33.377 9.79417 33.377 9.79351C33.377 9.79285 33.377 9.79219 33.377 9.79153C33.377 9.79087 33.377 9.79021 33.377 9.78955C33.377 9.78889 33.377 9.78822 33.377 9.78756C33.377 9.7869 33.377 9.78624 33.377 9.78557C33.377 9.78491 33.377 9.78425 33.377 9.78359C33.377 9.78292 33.377 9.78226 33.377 9.7816C33.377 9.78093 33.377 9.78027 33.377 9.77961C33.377 9.77894 33.377 9.77828 33.377 9.77761C33.377 9.77695 33.377 9.77628 33.377 9.77562C33.377 9.77495 33.377 9.77429 33.377 9.77362C33.377 9.77296 33.377 9.77229 33.377 9.77163C33.377 9.77096 33.377 9.77029 33.377 9.76963C33.377 9.76896 33.377 9.76829 33.377 9.76763C33.377 9.76696 33.377 9.76629 33.377 9.76562H32.377ZM32.377 10.7227H31.377C31.377 19.7942 24.5325 30.0938 12.0059 30.0938V31.0938V32.0938C25.866 32.0938 33.377 20.655 33.377 10.7227H32.377ZM12.0059 31.0938V30.0938C8.09703 30.0938 4.52727 28.9874 1.54627 27.0432L1 27.8809L0.453732 28.7185C3.76179 30.8759 7.71156 32.0938 12.0059 32.0938V31.0938ZM1 27.8809L0.875965 28.8731C1.4176 28.9408 2.02294 29.0176 2.70898 29.0176V28.0176V27.0176C2.16456 27.0176 1.67615 26.9576 1.12403 26.8886L1 27.8809ZM2.70898 28.0176V29.0176C6.29481 29.0176 9.58442 27.7726 12.2096 25.7308L11.5957 24.9414L10.9818 24.1521C8.68511 25.9383 5.82237 27.0176 2.70898 27.0176V28.0176ZM11.5957 24.9414L11.6174 23.9416C8.90069 23.8826 6.61245 22.1131 5.85177 19.6555L4.89648 19.9512L3.9412 20.2469C4.95786 23.5315 8.00165 25.8635 11.574 25.9412L11.5957 24.9414ZM4.89648 19.9512L4.75506 20.9411C5.20435 21.0053 5.69728 21.0879 6.26367 21.0879V20.0879V19.0879C5.87303 19.0879 5.54565 19.0338 5.03791 18.9612L4.89648 19.9512ZM6.26367 20.0879V21.0879C7.00408 21.0879 7.78334 20.9267 8.35191 20.7846L8.10938 19.8145L7.86684 18.8443C7.34166 18.9756 6.75373 19.0879 6.26367 19.0879V20.0879ZM8.10938 19.8145L8.31333 18.8355C5.48119 18.2454 3.36719 15.7713 3.36719 12.7734H2.36719H1.36719C1.36719 16.7482 4.17506 20.0163 7.90542 20.7934L8.10938 19.8145ZM2.36719 12.7734H3.36719V12.7051H2.36719H1.36719V12.7734H2.36719ZM2.36719 12.7051L1.87105 13.5733C2.99853 14.2176 4.32223 14.5175 5.58972 14.592L5.64844 13.5938L5.70716 12.5955C4.65042 12.5333 3.64991 12.2863 2.86333 11.8368L2.36719 12.7051ZM5.64844 13.5938L6.19646 12.7573C4.49031 11.6395 3.43555 9.76338 3.43555 7.64648H2.43555H1.43555C1.43555 10.4515 2.84172 12.9504 5.10041 14.4302L5.64844 13.5938ZM2.43555 7.64648H3.43555C3.43555 6.44827 3.7342 5.39771 4.25007 4.53793L3.39258 4.02344L2.53509 3.50894C1.82048 4.69994 1.43555 6.11032 1.43555 7.64648H2.43555ZM3.39258 4.02344L2.62136 4.66C6.34701 9.17378 11.9343 12.183 18.1692 12.5413L18.2266 11.543L18.2839 10.5446C12.6243 10.2193 7.54752 7.48638 4.1638 3.38687L3.39258 4.02344ZM18.2266 11.543L19.1967 11.3004C19.0792 10.8304 19.0215 10.365 19.0215 9.90234H18.0215H17.0215C17.0215 10.5335 17.1005 11.1618 17.2564 11.7855L18.2266 11.543ZM18.0215 9.90234H19.0215C19.0215 6.48978 21.7867 3.72461 25.1992 3.72461V2.72461V1.72461C20.6821 1.72461 17.0215 5.38522 17.0215 9.90234H18.0215ZM25.1992 2.72461V3.72461C26.9713 3.72461 28.5568 4.42909 29.7388 5.67012L30.4629 4.98047L31.187 4.29081C29.6346 2.66075 27.5287 1.72461 25.1992 1.72461V2.72461ZM30.4629 4.98047L30.6753 5.95765C32.3507 5.59343 34.0255 4.93879 35.4891 4.06062L34.9746 3.20312L34.4601 2.34563C33.1894 3.10808 31.7196 3.68392 30.2505 4.00329L30.4629 4.98047ZM34.9746 3.20312L34.0222 2.89835C33.5493 4.37626 32.612 5.54439 31.3213 6.30704L31.8301 7.16797L32.3388 8.0289C34.056 7.0142 35.3062 5.44795 35.927 3.5079L34.9746 3.20312ZM31.8301 7.16797L31.9249 8.16346C33.4792 8.01543 35.0195 7.57391 36.3378 6.98803L35.9316 6.07422L35.5255 5.16041C34.3828 5.66828 33.052 6.04707 31.7353 6.17247L31.8301 7.16797ZM35.9316 6.07422L35.0996 5.51952C34.2153 6.84597 33.0688 7.99672 31.777 8.96562L32.377 9.76562L32.977 10.5656C34.4195 9.48375 35.7339 8.17356 36.7637 6.62892L35.9316 6.07422Z" fill="black" mask="url(#path-1-outside-1_1_2469)"/>
</svg>
